<svg width="256" height="197" viewBox="0 0 256 197" fill="none" xmlns="http://www.w3.org/2000/svg">
<path d="M0.949095 184.913C0.394168 185.528 0.442947 186.476 1.05805 187.031L11.0817 196.074C11.6968 196.629 12.6453 196.581 13.2002 195.965C13.7551 195.35 13.7063 194.402 13.0912 193.847L4.18135 185.809L12.2196 176.899C12.7746 176.284 12.7258 175.335 12.1107 174.78C11.4956 174.225 10.5471 174.274 9.99216 174.889L0.949095 184.913ZM152.833 131.433L153.731 132.634L152.833 131.433ZM249.218 1.46208C248.861 0.714752 247.965 0.398734 247.218 0.75623L235.04 6.58192C234.292 6.93941 233.976 7.83504 234.334 8.58236C234.691 9.32969 235.587 9.6457 236.334 9.28821L247.159 4.10982L252.338 14.935C252.695 15.6823 253.591 15.9983 254.338 15.6408C255.086 15.2833 255.402 14.3877 255.044 13.6404L249.218 1.46208ZM2.06283 185.918L2.13987 187.416C3.1128 187.366 4.08507 187.31 5.05664 187.25L4.96381 185.753L4.87097 184.256C3.90992 184.316 2.94818 184.37 1.98579 184.42L2.06283 185.918ZM10.7578 185.332L10.8822 186.827C12.8239 186.666 14.7624 186.484 16.6975 186.282L16.5416 184.79L16.3857 183.298C14.4716 183.498 12.554 183.678 10.6335 183.838L10.7578 185.332ZM22.3126 184.125L22.4999 185.613C24.4329 185.37 26.3622 185.106 28.2875 184.823L28.0688 183.339L27.8501 181.855C25.9457 182.135 24.0373 182.396 22.1253 182.637L22.3126 184.125ZM33.8071 182.431L34.0571 183.91C35.9778 183.585 37.8942 183.241 39.806 182.876L39.5248 181.403L39.2437 179.929C37.3527 180.29 35.4571 180.631 33.5571 180.952L33.8071 182.431ZM45.2195 180.254L45.5317 181.721C47.4367 181.315 49.3368 180.89 51.2317 180.445L50.8886 178.985L50.5456 177.525C48.6713 177.965 46.7918 178.386 44.9074 178.786L45.2195 180.254ZM56.5297 177.597L56.9035 179.049C58.7895 178.564 60.67 178.059 62.5445 177.534L62.1402 176.09L61.7358 174.645C59.8816 175.164 58.0215 175.664 56.1559 176.144L56.5297 177.597ZM67.7178 174.465L68.1526 175.9C70.0163 175.336 71.8738 174.752 73.7248 174.149L73.2599 172.722L72.7949 171.296C70.964 171.893 69.1266 172.471 67.2831 173.029L67.7178 174.465ZM78.7639 170.864L79.2588 172.28C81.0968 171.637 82.9281 170.975 84.7522 170.294L84.2275 168.889L83.7028 167.484C81.8985 168.158 80.0871 168.812 78.269 169.448L78.7639 170.864ZM89.6482 166.8L90.2024 168.194C92.0115 167.474 93.8132 166.736 95.6071 165.978L95.0237 164.596L94.4402 163.215C92.6657 163.964 90.8835 164.694 89.094 165.406L89.6482 166.8ZM100.351 162.28L100.964 163.649C102.741 162.855 104.51 162.041 106.27 161.208L105.629 159.852L104.988 158.496C103.246 159.32 101.497 160.125 99.739 160.911L100.351 162.28ZM110.854 157.313L111.524 158.656C113.266 157.787 114.999 156.899 116.723 155.993L116.025 154.665L115.327 153.337C113.622 154.234 111.907 155.112 110.185 155.971L110.854 157.313ZM121.138 151.908L121.864 153.221C123.567 152.279 125.261 151.319 126.946 150.341L126.193 149.044L125.439 147.747C123.773 148.714 122.097 149.664 120.413 150.595L121.138 151.908ZM131.186 146.073L131.966 147.354C133.628 146.342 135.28 145.311 136.922 144.263L136.115 142.998L135.308 141.734C133.683 142.771 132.049 143.791 130.405 144.792L131.186 146.073ZM140.978 139.821L141.811 141.067C143.429 139.986 145.036 138.887 146.632 137.77L145.772 136.541L144.912 135.312C143.333 136.416 141.744 137.504 140.144 138.574L140.978 139.821ZM150.497 133.161L151.383 134.371C152.168 133.797 152.951 133.217 153.731 132.634L152.833 131.433L151.935 130.232C151.163 130.809 150.389 131.381 149.611 131.95L150.497 133.161ZM152.833 131.433L153.731 132.634C154.512 132.05 155.29 131.462 156.064 130.87L155.153 129.679L154.242 128.487C153.477 129.072 152.707 129.654 151.935 130.232L152.833 131.433ZM159.736 126.099L160.672 127.271C162.196 126.054 163.706 124.822 165.202 123.575L164.242 122.423L163.281 121.271C161.802 122.504 160.308 123.723 158.8 124.926L159.736 126.099ZM168.669 118.653L169.654 119.785C171.125 118.505 172.582 117.21 174.025 115.901L173.017 114.79L172.009 113.679C170.582 114.975 169.14 116.255 167.685 117.521L168.669 118.653ZM177.281 110.837L178.313 111.926C179.729 110.585 181.13 109.23 182.516 107.861L181.462 106.794L180.408 105.727C179.037 107.081 177.651 108.421 176.25 109.747L177.281 110.837ZM185.556 102.664L186.632 103.709C187.99 102.31 189.333 100.897 190.661 99.4709L189.562 98.449L188.464 97.4272C187.151 98.8381 185.823 100.236 184.48 101.619L185.556 102.664ZM193.479 94.1504L194.598 95.1489C195.896 93.6942 197.178 92.2262 198.444 90.745L197.304 89.7703L196.164 88.7956C194.911 90.2608 193.643 91.713 192.36 93.1519L193.479 94.1504ZM201.036 85.3104L202.197 86.2609C203.432 84.7529 204.651 83.2322 205.854 81.6988L204.673 80.773L203.493 79.8471C202.303 81.3639 201.097 82.8683 199.876 84.3599L201.036 85.3104ZM208.214 76.1599L209.414 77.0607C210.584 75.5023 211.738 73.9315 212.876 72.3487L211.657 71.4734L210.439 70.5981C209.314 72.1638 208.173 73.7176 207.015 75.2592L208.214 76.1599ZM215.001 66.7154L216.237 67.5649C217.341 65.9588 218.428 64.3408 219.498 62.7114L218.244 61.8881L216.99 61.0648C215.932 62.6767 214.856 64.2772 213.765 65.8659L215.001 66.7154ZM221.384 56.9936L222.655 57.7903C223.69 56.1393 224.708 54.4772 225.708 52.804L224.421 52.0342L223.134 51.2644C222.144 52.9195 221.137 54.5637 220.113 56.1968L221.384 56.9936ZM227.353 47.0121L228.656 47.7546C229.621 46.0618 230.567 44.3583 231.497 42.6443L230.178 41.9293L228.86 41.2144C227.94 42.9098 227.003 44.595 226.049 46.2695L227.353 47.0121ZM232.896 36.7883L234.23 37.4753C235.122 35.7436 235.996 34.0017 236.853 32.25L235.505 31.5911L234.158 30.9322C233.311 32.665 232.445 34.3881 231.563 36.1012L232.896 36.7883ZM238.005 26.3401L239.366 26.9705C240.185 25.2029 240.985 23.4258 241.768 21.6393L240.394 21.0377L239.019 20.436C238.246 22.2032 237.454 23.9612 236.644 25.7097L238.005 26.3401ZM242.67 15.6867L244.056 16.2594C244.8 14.4594 245.525 12.6503 246.232 10.8325L244.833 10.2891L243.435 9.74566C242.736 11.5439 242.019 13.3334 241.284 15.1141L242.67 15.6867ZM246.883 4.8471L248.292 5.36103C248.626 4.44562 248.955 3.5281 249.28 2.60848L247.865 2.10938L246.451 1.61027C246.13 2.51997 245.804 3.42761 245.474 4.33316L246.883 4.8471ZM0.949095 184.913C0.394168 185.528 0.442947 186.476 1.05805 187.031L11.0817 196.074C11.6968 196.629 12.6453 196.581 13.2002 195.965C13.7551 195.35 13.7063 194.402 13.0912 193.847L4.18135 185.809L12.2196 176.899C12.7746 176.284 12.7258 175.335 12.1107 174.78C11.4956 174.225 10.5471 174.274 9.99216 174.889L0.949095 184.913ZM152.833 131.433L153.731 132.634L152.833 131.433ZM249.218 1.46208C248.861 0.714752 247.965 0.398734 247.218 0.75623L235.04 6.58192C234.292 6.93941 233.976 7.83504 234.334 8.58236C234.691 9.32969 235.587 9.6457 236.334 9.28821L247.159 4.10982L252.338 14.935C252.695 15.6823 253.591 15.9983 254.338 15.6408C255.086 15.2833 255.402 14.3877 255.044 13.6404L249.218 1.46208ZM2.06283 185.918L2.13987 187.416C3.1128 187.366 4.08507 187.31 5.05664 187.25L4.96381 185.753L4.87097 184.256C3.90992 184.316 2.94818 184.37 1.98579 184.42L2.06283 185.918ZM10.7578 185.332L10.8822 186.827C12.8239 186.666 14.7624 186.484 16.6975 186.282L16.5416 184.79L16.3857 183.298C14.4716 183.498 12.554 183.678 10.6335 183.838L10.7578 185.332ZM22.3126 184.125L22.4999 185.613C24.4329 185.37 26.3622 185.106 28.2875 184.823L28.0688 183.339L27.8501 181.855C25.9457 182.135 24.0373 182.396 22.1253 182.637L22.3126 184.125ZM33.8071 182.431L34.0571 183.91C35.9778 183.585 37.8942 183.241 39.806 182.876L39.5248 181.403L39.2437 179.929C37.3527 180.29 35.4571 180.631 33.5571 180.952L33.8071 182.431ZM45.2195 180.254L45.5317 181.721C47.4367 181.315 49.3368 180.89 51.2317 180.445L50.8886 178.985L50.5456 177.525C48.6713 177.965 46.7918 178.386 44.9074 178.786L45.2195 180.254ZM56.5297 177.597L56.9035 179.049C58.7895 178.564 60.67 178.059 62.5445 177.534L62.1402 176.09L61.7358 174.645C59.8816 175.164 58.0215 175.664 56.1559 176.144L56.5297 177.597ZM67.7178 174.465L68.1526 175.9C70.0163 175.336 71.8738 174.752 73.7248 174.149L73.2599 172.722L72.7949 171.296C70.964 171.893 69.1266 172.471 67.2831 173.029L67.7178 174.465ZM78.7639 170.864L79.2588 172.28C81.0968 171.637 82.9281 170.975 84.7522 170.294L84.2275 168.889L83.7028 167.484C81.8985 168.158 80.0871 168.812 78.269 169.448L78.7639 170.864ZM89.6482 166.8L90.2024 168.194C92.0115 167.474 93.8132 166.736 95.6071 165.978L95.0237 164.596L94.4402 163.215C92.6657 163.964 90.8835 164.694 89.094 165.406L89.6482 166.8ZM100.351 162.28L100.964 163.649C102.741 162.855 104.51 162.041 106.27 161.208L105.629 159.852L104.988 158.496C103.246 159.32 101.497 160.125 99.739 160.911L100.351 162.28ZM110.854 157.313L111.524 158.656C113.266 157.787 114.999 156.899 116.723 155.993L116.025 154.665L115.327 153.337C113.622 154.234 111.907 155.112 110.185 155.971L110.854 157.313ZM121.138 151.908L121.864 153.221C123.567 152.279 125.261 151.319 126.946 150.341L126.193 149.044L125.439 147.747C123.773 148.714 122.097 149.664 120.413 150.595L121.138 151.908ZM131.186 146.073L131.966 147.354C133.628 146.342 135.28 145.311 136.922 144.263L136.115 142.998L135.308 141.734C133.683 142.771 132.049 143.791 130.405 144.792L131.186 146.073ZM140.978 139.821L141.811 141.067C143.429 139.986 145.036 138.887 146.632 137.77L145.772 136.541L144.912 135.312C143.333 136.416 141.744 137.504 140.144 138.574L140.978 139.821ZM150.497 133.161L151.383 134.371C152.168 133.797 152.951 133.217 153.731 132.634L152.833 131.433L151.935 130.232C151.163 130.809 150.389 131.381 149.611 131.95L150.497 133.161ZM152.833 131.433L153.731 132.634C154.512 132.05 155.29 131.462 156.064 130.87L155.153 129.679L154.242 128.487C153.477 129.072 152.707 129.654 151.935 130.232L152.833 131.433ZM159.736 126.099L160.672 127.271C162.196 126.054 163.706 124.822 165.202 123.575L164.242 122.423L163.281 121.271C161.802 122.504 160.308 123.723 158.8 124.926L159.736 126.099ZM168.669 118.653L169.654 119.785C171.125 118.505 172.582 117.21 174.025 115.901L173.017 114.79L172.009 113.679C170.582 114.975 169.14 116.255 167.685 117.521L168.669 118.653ZM177.281 110.837L178.313 111.926C179.729 110.585 181.13 109.23 182.516 107.861L181.462 106.794L180.408 105.727C179.037 107.081 177.651 108.421 176.25 109.747L177.281 110.837ZM185.556 102.664L186.632 103.709C187.99 102.31 189.333 100.897 190.661 99.4709L189.562 98.449L188.464 97.4272C187.151 98.8381 185.823 100.236 184.48 101.619L185.556 102.664ZM193.479 94.1504L194.598 95.1489C195.896 93.6942 197.178 92.2262 198.444 90.745L197.304 89.7703L196.164 88.7956C194.911 90.2608 193.643 91.713 192.36 93.1519L193.479 94.1504ZM201.036 85.3104L202.197 86.2609C203.432 84.7529 204.651 83.2322 205.854 81.6988L204.673 80.773L203.493 79.8471C202.303 81.3639 201.097 82.8683 199.876 84.3599L201.036 85.3104ZM208.214 76.1599L209.414 77.0607C210.584 75.5023 211.738 73.9315 212.876 72.3487L211.657 71.4734L210.439 70.5981C209.314 72.1638 208.173 73.7176 207.015 75.2592L208.214 76.1599ZM215.001 66.7154L216.237 67.5649C217.341 65.9588 218.428 64.3408 219.498 62.7114L218.244 61.8881L216.99 61.0648C215.932 62.6767 214.856 64.2772 213.765 65.8659L215.001 66.7154ZM221.384 56.9936L222.655 57.7903C223.69 56.1393 224.708 54.4772 225.708 52.804L224.421 52.0342L223.134 51.2644C222.144 52.9195 221.137 54.5637 220.113 56.1968L221.384 56.9936ZM227.353 47.0121L228.656 47.7546C229.621 46.0618 230.567 44.3583 231.497 42.6443L230.178 41.9293L228.86 41.2144C227.94 42.9098 227.003 44.595 226.049 46.2695L227.353 47.0121ZM232.896 36.7883L234.23 37.4753C235.122 35.7436 235.996 34.0017 236.853 32.25L235.505 31.5911L234.158 30.9322C233.311 32.665 232.445 34.3881 231.563 36.1012L232.896 36.7883ZM238.005 26.3401L239.366 26.9705C240.185 25.2029 240.985 23.4258 241.768 21.6393L240.394 21.0377L239.019 20.436C238.246 22.2032 237.454 23.9612 236.644 25.7097L238.005 26.3401ZM242.67 15.6867L244.056 16.2594C244.8 14.4594 245.525 12.6503 246.232 10.8325L244.833 10.2891L243.435 9.74566C242.736 11.5439 242.019 13.3334 241.284 15.1141L242.67 15.6867ZM246.883 4.8471L248.292 5.36103C248.626 4.44562 248.955 3.5281 249.28 2.60848L247.865 2.10938L246.451 1.61027C246.13 2.51997 245.804 3.42761 245.474 4.33316L246.883 4.8471Z" fill="#77A1D3"/>
</svg>
