<svg width="291" height="129" viewBox="0 0 291 129" fill="none" xmlns="http://www.w3.org/2000/svg">
<path d="M0.934272 14.332C0.239053 13.8815 0.0406817 12.9527 0.491196 12.2575L7.83275 0.928276C8.28327 0.233063 9.21207 0.0346909 9.90728 0.485207C10.6025 0.935715 10.8009 1.86452 10.3504 2.55974L3.82453 12.6302L13.895 19.156C14.5902 19.6065 14.7886 20.5353 14.338 21.2305C13.8875 21.9257 12.9587 22.1241 12.2635 21.6736L0.934272 14.332ZM161.485 26.6793L162.041 25.2865L161.485 26.6793ZM288.225 127.275C288.073 128.089 287.289 128.626 286.475 128.475L273.204 125.999C272.389 125.847 271.852 125.064 272.004 124.25C272.156 123.435 272.939 122.898 273.754 123.05L285.55 125.25L287.751 113.454C287.903 112.639 288.686 112.102 289.5 112.254C290.315 112.406 290.852 113.189 290.7 114.004L288.225 127.275ZM1.75 13.0732L1.4367 11.6063C2.38942 11.4028 3.34284 11.2045 4.2969 11.0112L4.59471 12.4813L4.89253 13.9515C3.9488 14.1427 3.00571 14.3389 2.0633 14.5402L1.75 13.0732ZM10.3002 11.3881L10.0335 9.91196C11.9507 9.56549 13.8703 9.23951 15.7918 8.93398L16.0274 10.4154L16.2629 11.8968C14.3622 12.199 12.4634 12.5214 10.5669 12.8641L10.3002 11.3881ZM21.7737 9.56373L21.5695 8.0777C23.4996 7.81242 25.4314 7.56769 27.3645 7.34345L27.5373 8.83346L27.7102 10.3235C25.798 10.5453 23.8872 10.7874 21.978 11.0498L21.7737 9.56373ZM33.315 8.22499L33.1737 6.73167C35.113 6.5481 37.0533 6.38509 38.9943 6.24261L39.1041 7.73859L39.2139 9.23457C37.2939 9.3755 35.3746 9.53674 33.4564 9.71832L33.315 8.22499ZM44.9021 7.37447L44.8239 5.87651C46.769 5.77496 48.7144 5.69396 50.6599 5.63351L50.7065 7.13279L50.753 8.63206C48.8287 8.69186 46.9043 8.77197 44.9803 8.87243L44.9021 7.37447ZM56.5146 7.01365L56.4996 5.51372C58.447 5.49432 60.3941 5.49548 62.3406 5.51717L62.3239 7.01708L62.3072 8.51699C60.3818 8.49554 58.4558 8.49438 56.5295 8.51357L56.5146 7.01365ZM68.1321 7.1431L68.1804 5.64388C70.1267 5.70667 72.0721 5.78997 74.0162 5.89378L73.9362 7.39165L73.8562 8.88951C71.9332 8.78683 70.0089 8.70442 68.0837 8.64233L68.1321 7.1431ZM79.7338 7.76259L79.8454 6.26674C81.787 6.41155 83.7271 6.57685 85.6654 6.7626L85.5223 8.25576L85.3792 9.74892C83.462 9.56518 81.5429 9.40168 79.6222 9.25843L79.7338 7.76259ZM91.299 8.87094L91.4736 7.38113C93.4072 7.6077 95.3387 7.85469 97.2675 8.12207L97.0616 9.60786L96.8556 11.0937C94.9476 10.8292 93.0372 10.5849 91.1245 10.3607L91.299 8.87094ZM102.807 10.4662L103.045 8.98508C104.967 9.29298 106.886 9.6212 108.802 9.96973L108.534 11.4455L108.265 12.9213C106.37 12.5765 104.471 12.2519 102.57 11.9473L102.807 10.4662ZM114.238 12.5454L114.537 11.0756C116.445 11.4643 118.348 11.8732 120.248 12.3023L119.918 13.7654L119.587 15.2286C117.708 14.8041 115.825 14.3997 113.938 14.0152L114.238 12.5454ZM125.571 15.105L125.932 13.6491C127.821 14.1178 129.706 14.6067 131.586 15.1156L131.194 16.5635L130.802 18.0114C128.942 17.508 127.078 17.0245 125.209 16.5608L125.571 15.105ZM136.786 18.1403L137.208 16.701C139.075 17.2489 140.938 17.8168 142.795 18.4046L142.343 19.8347L141.89 21.2648C140.053 20.6833 138.21 20.1216 136.363 19.5796L136.786 18.1403ZM147.862 21.6458L148.345 20.2256C150.187 20.8516 152.024 21.4975 153.855 22.1631L153.342 23.5728L152.83 24.9826C151.019 24.3242 149.202 23.6853 147.38 23.066L147.862 21.6458ZM158.781 25.615L159.323 24.2164C160.231 24.5682 161.137 24.9249 162.041 25.2865L161.485 26.6793L160.928 28.0721C160.033 27.7144 159.137 27.3616 158.239 27.0136L158.781 25.615ZM161.485 26.6793L162.041 25.2865C162.947 25.6484 163.85 26.015 164.751 26.3863L164.18 27.7731L163.608 29.16C162.717 28.7928 161.824 28.4302 160.928 28.0721L161.485 26.6793ZM169.533 30.0451L170.133 28.6705C171.92 29.4514 173.698 30.2505 175.466 31.0678L174.837 32.4294L174.207 33.7909C172.458 32.9825 170.7 32.192 168.932 31.4196L169.533 30.0451ZM180.089 34.9249L180.747 33.577C182.499 34.4324 184.242 35.3059 185.974 36.1972L185.288 37.531L184.602 38.8648C182.888 37.9831 181.164 37.1191 179.431 36.2729L180.089 34.9249ZM190.431 40.2461L191.145 38.927C192.859 39.8555 194.564 40.8016 196.257 41.7653L195.515 43.0689L194.773 44.3726C193.098 43.4194 191.412 42.4835 189.716 41.5651L190.431 40.2461ZM200.539 45.9983L201.308 44.7106C202.981 45.7104 204.644 46.7274 206.295 47.7617L205.499 49.0329L204.703 50.3042C203.07 49.2811 201.425 48.275 199.769 47.2861L200.539 45.9983ZM210.395 52.1714L211.218 50.9172C212.848 51.9865 214.466 53.0727 216.072 54.1757L215.223 55.4123L214.374 56.6488C212.785 55.5578 211.184 54.4833 209.572 53.4256L210.395 52.1714ZM219.983 58.7542L220.857 57.5358C222.441 58.6727 224.012 59.8262 225.571 60.996L224.67 62.1957L223.77 63.3954C222.228 62.2383 220.674 61.0973 219.108 59.9727L219.983 58.7542ZM229.284 65.7351L230.21 64.5545C231.744 65.757 233.265 66.9755 234.773 68.21L233.823 69.3708L232.873 70.5315C231.381 69.3104 229.876 68.105 228.359 66.9156L229.284 65.7351ZM238.284 73.1012L239.259 71.9607C240.74 73.2265 242.209 74.508 243.664 75.805L242.666 76.9248L241.668 78.0445C240.228 76.7615 238.776 75.4939 237.31 74.2417L238.284 73.1012ZM246.966 80.8397L247.988 79.7412C249.415 81.068 250.828 82.4102 252.227 83.7674L251.183 84.8441L250.139 85.9209C248.754 84.5784 247.356 83.2507 245.945 81.9382L246.966 80.8397ZM255.315 88.9364L256.381 87.8818C257.751 89.2673 259.107 90.6677 260.448 92.0827L259.359 93.1146L258.271 94.1465C256.944 92.7468 255.603 91.3615 254.248 89.9909L255.315 88.9364ZM263.315 97.3771L264.426 96.3683C265.736 97.8101 267.031 99.2662 268.312 100.737L267.181 101.722L266.05 102.707C264.783 101.253 263.501 99.8121 262.205 98.3858L263.315 97.3771ZM270.954 106.147L272.106 105.186C273.354 106.681 274.587 108.191 275.805 109.714L274.634 110.651L273.462 111.587C272.258 110.081 271.038 108.587 269.803 107.108L270.954 106.147ZM278.218 115.23L279.409 114.318C280.593 115.864 281.761 117.424 282.914 118.997L281.704 119.884L280.495 120.77C279.354 119.214 278.198 117.672 277.027 116.142L278.218 115.23ZM285.093 124.61L286.321 123.749C286.88 124.546 287.436 125.347 287.987 126.152L286.75 127L285.513 127.848C284.967 127.053 284.418 126.26 283.865 125.471L285.093 124.61ZM0.934272 14.332C0.239053 13.8815 0.0406817 12.9527 0.491196 12.2575L7.83275 0.928276C8.28327 0.233063 9.21207 0.0346909 9.90728 0.485207C10.6025 0.935715 10.8009 1.86452 10.3504 2.55974L3.82453 12.6302L13.895 19.156C14.5902 19.6065 14.7886 20.5353 14.338 21.2305C13.8875 21.9257 12.9587 22.1241 12.2635 21.6736L0.934272 14.332ZM161.485 26.6793L162.041 25.2865L161.485 26.6793ZM288.225 127.275C288.073 128.089 287.289 128.626 286.475 128.475L273.204 125.999C272.389 125.847 271.852 125.064 272.004 124.25C272.156 123.435 272.939 122.898 273.754 123.05L285.55 125.25L287.751 113.454C287.903 112.639 288.686 112.102 289.5 112.254C290.315 112.406 290.852 113.189 290.7 114.004L288.225 127.275ZM1.75 13.0732L1.4367 11.6063C2.38942 11.4028 3.34284 11.2045 4.2969 11.0112L4.59471 12.4813L4.89253 13.9515C3.9488 14.1427 3.00571 14.3389 2.0633 14.5402L1.75 13.0732ZM10.3002 11.3881L10.0335 9.91196C11.9507 9.56549 13.8703 9.23951 15.7918 8.93398L16.0274 10.4154L16.2629 11.8968C14.3622 12.199 12.4634 12.5214 10.5669 12.8641L10.3002 11.3881ZM21.7737 9.56373L21.5695 8.0777C23.4996 7.81242 25.4314 7.56769 27.3645 7.34345L27.5373 8.83346L27.7102 10.3235C25.798 10.5453 23.8872 10.7874 21.978 11.0498L21.7737 9.56373ZM33.315 8.22499L33.1737 6.73167C35.113 6.5481 37.0533 6.38509 38.9943 6.24261L39.1041 7.73859L39.2139 9.23457C37.2939 9.3755 35.3746 9.53674 33.4564 9.71832L33.315 8.22499ZM44.9021 7.37447L44.8239 5.87651C46.769 5.77496 48.7144 5.69396 50.6599 5.63351L50.7065 7.13279L50.753 8.63206C48.8287 8.69186 46.9043 8.77197 44.9803 8.87243L44.9021 7.37447ZM56.5146 7.01365L56.4996 5.51372C58.447 5.49432 60.3941 5.49548 62.3406 5.51717L62.3239 7.01708L62.3072 8.51699C60.3818 8.49554 58.4558 8.49438 56.5295 8.51357L56.5146 7.01365ZM68.1321 7.1431L68.1804 5.64388C70.1267 5.70667 72.0721 5.78997 74.0162 5.89378L73.9362 7.39165L73.8562 8.88951C71.9332 8.78683 70.0089 8.70442 68.0837 8.64233L68.1321 7.1431ZM79.7338 7.76259L79.8454 6.26674C81.787 6.41155 83.7271 6.57685 85.6654 6.7626L85.5223 8.25576L85.3792 9.74892C83.462 9.56518 81.5429 9.40168 79.6222 9.25843L79.7338 7.76259ZM91.299 8.87094L91.4736 7.38113C93.4072 7.6077 95.3387 7.85469 97.2675 8.12207L97.0616 9.60786L96.8556 11.0937C94.9476 10.8292 93.0372 10.5849 91.1245 10.3607L91.299 8.87094ZM102.807 10.4662L103.045 8.98508C104.967 9.29298 106.886 9.6212 108.802 9.96973L108.534 11.4455L108.265 12.9213C106.37 12.5765 104.471 12.2519 102.57 11.9473L102.807 10.4662ZM114.238 12.5454L114.537 11.0756C116.445 11.4643 118.348 11.8732 120.248 12.3023L119.918 13.7654L119.587 15.2286C117.708 14.8041 115.825 14.3997 113.938 14.0152L114.238 12.5454ZM125.571 15.105L125.932 13.6491C127.821 14.1178 129.706 14.6067 131.586 15.1156L131.194 16.5635L130.802 18.0114C128.942 17.508 127.078 17.0245 125.209 16.5608L125.571 15.105ZM136.786 18.1403L137.208 16.701C139.075 17.2489 140.938 17.8168 142.795 18.4046L142.343 19.8347L141.89 21.2648C140.053 20.6833 138.21 20.1216 136.363 19.5796L136.786 18.1403ZM147.862 21.6458L148.345 20.2256C150.187 20.8516 152.024 21.4975 153.855 22.1631L153.342 23.5728L152.83 24.9826C151.019 24.3242 149.202 23.6853 147.38 23.066L147.862 21.6458ZM158.781 25.615L159.323 24.2164C160.231 24.5682 161.137 24.9249 162.041 25.2865L161.485 26.6793L160.928 28.0721C160.033 27.7144 159.137 27.3616 158.239 27.0136L158.781 25.615ZM161.485 26.6793L162.041 25.2865C162.947 25.6484 163.85 26.015 164.751 26.3863L164.18 27.7731L163.608 29.16C162.717 28.7928 161.824 28.4302 160.928 28.0721L161.485 26.6793ZM169.533 30.0451L170.133 28.6705C171.92 29.4514 173.698 30.2505 175.466 31.0678L174.837 32.4294L174.207 33.7909C172.458 32.9825 170.7 32.192 168.932 31.4196L169.533 30.0451ZM180.089 34.9249L180.747 33.577C182.499 34.4324 184.242 35.3059 185.974 36.1972L185.288 37.531L184.602 38.8648C182.888 37.9831 181.164 37.1191 179.431 36.2729L180.089 34.9249ZM190.431 40.2461L191.145 38.927C192.859 39.8555 194.564 40.8016 196.257 41.7653L195.515 43.0689L194.773 44.3726C193.098 43.4194 191.412 42.4835 189.716 41.5651L190.431 40.2461ZM200.539 45.9983L201.308 44.7106C202.981 45.7104 204.644 46.7274 206.295 47.7617L205.499 49.0329L204.703 50.3042C203.07 49.2811 201.425 48.275 199.769 47.2861L200.539 45.9983ZM210.395 52.1714L211.218 50.9172C212.848 51.9865 214.466 53.0727 216.072 54.1757L215.223 55.4123L214.374 56.6488C212.785 55.5578 211.184 54.4833 209.572 53.4256L210.395 52.1714ZM219.983 58.7542L220.857 57.5358C222.441 58.6727 224.012 59.8262 225.571 60.996L224.67 62.1957L223.77 63.3954C222.228 62.2383 220.674 61.0973 219.108 59.9727L219.983 58.7542ZM229.284 65.7351L230.21 64.5545C231.744 65.757 233.265 66.9755 234.773 68.21L233.823 69.3708L232.873 70.5315C231.381 69.3104 229.876 68.105 228.359 66.9156L229.284 65.7351ZM238.284 73.1012L239.259 71.9607C240.74 73.2265 242.209 74.508 243.664 75.805L242.666 76.9248L241.668 78.0445C240.228 76.7615 238.776 75.4939 237.31 74.2417L238.284 73.1012ZM246.966 80.8397L247.988 79.7412C249.415 81.068 250.828 82.4102 252.227 83.7674L251.183 84.8441L250.139 85.9209C248.754 84.5784 247.356 83.2507 245.945 81.9382L246.966 80.8397ZM255.315 88.9364L256.381 87.8818C257.751 89.2673 259.107 90.6677 260.448 92.0827L259.359 93.1146L258.271 94.1465C256.944 92.7468 255.603 91.3615 254.248 89.9909L255.315 88.9364ZM263.315 97.3771L264.426 96.3683C265.736 97.8101 267.031 99.2662 268.312 100.737L267.181 101.722L266.05 102.707C264.783 101.253 263.501 99.8121 262.205 98.3858L263.315 97.3771ZM270.954 106.147L272.106 105.186C273.354 106.681 274.587 108.191 275.805 109.714L274.634 110.651L273.462 111.587C272.258 110.081 271.038 108.587 269.803 107.108L270.954 106.147ZM278.218 115.23L279.409 114.318C280.593 115.864 281.761 117.424 282.914 118.997L281.704 119.884L280.495 120.77C279.354 119.214 278.198 117.672 277.027 116.142L278.218 115.23ZM285.093 124.61L286.321 123.749C286.88 124.546 287.436 125.347 287.987 126.152L286.75 127L285.513 127.848C284.967 127.053 284.418 126.26 283.865 125.471L285.093 124.61Z" fill="#77A1D3"/>
</svg>
