<svg width="326" height="96" viewBox="0 0 326 96" fill="none" xmlns="http://www.w3.org/2000/svg">
<path d="M323.145 95.6057C323.971 95.6637 324.688 95.0409 324.746 94.2145L325.692 80.7477C325.75 79.9213 325.127 79.2043 324.301 79.1462C323.475 79.0882 322.758 79.7111 322.7 80.5375L321.859 92.508L309.888 91.6672C309.062 91.6091 308.345 92.232 308.287 93.0584C308.229 93.8848 308.852 94.6017 309.678 94.6598L323.145 95.6057ZM173.503 7.15596L173.212 8.62746L173.503 7.15596ZM0.825304 30.1536C0.566118 30.9404 0.993864 31.7884 1.7807 32.0476L14.603 36.2713C15.3898 36.5305 16.2378 36.1027 16.497 35.3159C16.7561 34.529 16.3284 33.6811 15.5416 33.4219L4.14399 29.6675L7.89838 18.2699C8.15757 17.4831 7.72982 16.6351 6.94298 16.3759C6.15614 16.1167 5.30817 16.5445 5.04899 17.3313L0.825304 30.1536ZM2.25 30.6229L2.92557 31.9622C3.79474 31.5237 4.6659 31.0903 5.53899 30.6618L4.87819 29.3152L4.2174 27.9686C3.33444 28.4019 2.45343 28.8402 1.57443 29.2836L2.25 30.6229ZM10.1746 26.7882L10.8056 28.149C12.5717 27.33 14.3454 26.5312 16.1261 25.7527L15.5252 24.3783L14.9243 23.0039C13.1234 23.7913 11.3297 24.5991 9.54355 25.4274L10.1746 26.7882ZM20.9277 22.0869L21.4981 23.4742C23.2984 22.7339 25.1055 22.0141 26.919 21.3146L26.3793 19.9151L25.8395 18.5156C24.0054 19.2229 22.1779 19.951 20.3572 20.6996L20.9277 22.0869ZM31.8774 17.864L32.3862 19.2751C34.2171 18.615 36.0541 17.9755 37.897 17.3567L37.4195 15.9347L36.942 14.5127C35.0782 15.1386 33.2203 15.7853 31.3687 16.4529L31.8774 17.864ZM43.0028 14.1281L43.4488 15.5602C45.3068 14.9816 47.1703 14.4237 49.039 13.8867L48.6247 12.4451L48.2104 11.0034C46.3205 11.5465 44.4359 12.1107 42.5567 12.6959L43.0028 14.1281ZM54.2825 10.8865L54.6649 12.337C56.5464 11.8409 58.4328 11.3659 60.3236 10.9118L59.9733 9.45326L59.623 7.99473C57.7108 8.45395 55.803 8.93442 53.9001 9.43608L54.2825 10.8865ZM65.6943 8.146L66.0123 9.61191C67.9136 9.19949 69.8191 8.80816 71.7283 8.43798L71.4428 6.9654L71.1572 5.49283C69.2264 5.86721 67.2993 6.26298 65.3763 6.68009L65.6943 8.146ZM77.2159 5.91205L77.4688 7.39057C79.3863 7.06255 81.3071 6.75575 83.231 6.47022L83.0108 4.98647L82.7906 3.50273C80.8448 3.7915 78.9022 4.10178 76.9629 4.43353L77.2159 5.91205ZM88.8248 4.18914L89.0122 5.67739C90.942 5.43443 92.8745 5.21277 94.8094 5.01249L94.6549 3.52046L94.5005 2.02843C92.5436 2.23099 90.5892 2.45516 88.6374 2.70089L88.8248 4.18914ZM100.498 2.98077L100.62 4.47585C102.558 4.3184 104.499 4.18236 106.441 4.06775L106.353 2.57036L106.264 1.07296C104.3 1.18887 102.338 1.32646 100.377 1.4857L100.498 2.98077ZM112.214 2.28944L112.27 3.78842C114.213 3.7168 116.157 3.66665 118.103 3.63799L118.081 2.13816L118.059 0.638319C116.091 0.667297 114.124 0.718025 112.159 0.790453L112.214 2.28944ZM123.949 2.11661L123.938 3.61657C125.883 3.63093 127.827 3.66678 129.773 3.72417L129.817 2.22482L129.861 0.72547C127.894 0.667428 125.927 0.631171 123.96 0.616651L123.949 2.11661ZM135.68 2.46272L135.603 3.96072C137.544 4.06101 139.486 4.18279 141.427 4.32613L141.537 2.83021L141.648 1.33428C139.685 1.18931 137.721 1.06614 135.758 0.964718L135.68 2.46272ZM147.384 3.32708L147.241 4.8202C149.176 5.00619 151.11 5.21366 153.043 5.44268L153.219 3.9531L153.396 2.46352C151.441 2.2319 149.485 2.02206 147.528 1.83397L147.384 3.32708ZM159.039 4.70793L158.829 6.19325C160.754 6.46452 162.677 6.75725 164.598 7.07149L164.84 5.59116L165.082 4.11084C163.139 3.79303 161.194 3.49697 159.248 3.22261L159.039 4.70793ZM170.621 6.60233L170.346 8.07695C171.302 8.25509 172.257 8.43859 173.212 8.62746L173.503 7.15596L173.794 5.68447C172.829 5.49346 171.862 5.30787 170.895 5.12771L170.621 6.60233ZM173.503 7.15596L173.212 8.62746C174.169 8.81663 175.124 9.011 176.077 9.21056L176.385 7.74237L176.692 6.27418C175.728 6.07236 174.762 5.87578 173.794 5.68447L173.503 7.15596ZM182.124 9.01006L181.785 10.4711C183.684 10.9126 185.577 11.3748 187.463 11.8575L187.835 10.4044L188.207 8.95119C186.299 8.46302 184.385 7.99557 182.464 7.54903L182.124 9.01006ZM193.513 11.9246L193.109 13.3692C194.986 13.8941 196.857 14.4396 198.72 15.0052L199.156 13.5699L199.591 12.1346C197.707 11.5625 195.815 11.0109 193.917 10.48L193.513 11.9246ZM204.761 15.3396L204.294 16.765C206.146 17.3723 207.99 17.9999 209.827 18.6474L210.326 17.2328L210.824 15.8181C208.967 15.1633 207.102 14.5286 205.228 13.9143L204.761 15.3396ZM215.847 19.2484L215.317 20.6517C217.141 21.3402 218.956 22.0487 220.763 22.7768L221.323 21.3856L221.884 19.9943C220.057 19.2579 218.221 18.5415 216.377 17.8451L215.847 19.2484ZM226.751 23.6431L226.159 25.0216C227.95 25.7899 229.733 26.5777 231.505 27.3849L232.127 26.0198L232.749 24.6546C230.956 23.8383 229.153 23.0415 227.342 22.2645L226.751 23.6431ZM237.449 28.5145L236.798 29.8656C238.553 30.712 240.299 31.5776 242.035 32.4623L242.716 31.1259L243.397 29.7895C241.641 28.8948 239.876 28.0193 238.101 27.1634L237.449 28.5145ZM247.923 33.8527L247.213 35.1738C248.929 36.0966 250.634 37.0383 252.33 37.9987L253.069 36.6936L253.808 35.3884C252.094 34.4172 250.369 33.4649 248.633 32.5316L247.923 33.8527ZM258.151 39.647L257.383 40.9356C259.057 41.9329 260.72 42.9487 262.371 43.9829L263.167 42.7116L263.963 41.4403C262.293 40.3944 260.612 39.3671 258.919 38.3585L258.151 39.647ZM268.115 45.8858L267.291 47.1393C268.919 48.2092 270.535 49.2972 272.14 50.4032L272.991 49.1681L273.842 47.933C272.219 46.8145 270.585 45.7143 268.939 44.6323L268.115 45.8858ZM277.794 52.5567L276.916 53.7728C278.495 54.913 280.062 56.071 281.617 57.2466L282.522 56.0501L283.426 54.8536C281.854 53.6648 280.269 52.4937 278.672 51.3406L277.794 52.5567ZM287.172 59.6465L286.241 60.8228C287.768 62.0312 289.283 63.2568 290.785 64.4996L291.741 63.344L292.697 62.1883C291.179 60.9315 289.647 59.6921 288.102 58.4701L287.172 59.6465ZM296.228 67.1407L295.247 68.2751C296.72 69.5491 298.179 70.84 299.625 72.1476L300.631 71.035L301.637 69.9224C300.175 68.6001 298.699 67.2947 297.21 66.0063L296.228 67.1407ZM304.948 75.0249L303.917 76.1151C305.333 77.4523 306.734 78.8059 308.122 80.1758L309.176 79.1083L310.229 78.0409C308.826 76.6556 307.409 75.2868 305.978 73.9346L304.948 75.0249ZM313.313 83.2834L312.236 84.3276C313.591 85.7252 314.932 87.1389 316.259 88.5684L317.358 87.5481L318.458 86.5277C317.117 85.0822 315.76 83.6526 314.39 82.2393L313.313 83.2834ZM321.309 91.9002L320.188 92.8962C320.835 93.6246 321.478 94.3569 322.118 95.0931L323.25 94.1094L324.382 93.1256C323.736 92.3812 323.085 91.6407 322.431 90.9041L321.309 91.9002ZM323.145 95.6057C323.971 95.6637 324.688 95.0409 324.746 94.2145L325.692 80.7477C325.75 79.9213 325.127 79.2043 324.301 79.1462C323.475 79.0882 322.758 79.7111 322.7 80.5375L321.859 92.508L309.888 91.6672C309.062 91.6091 308.345 92.232 308.287 93.0584C308.229 93.8848 308.852 94.6017 309.678 94.6598L323.145 95.6057ZM173.503 7.15596L173.212 8.62746L173.503 7.15596ZM0.825304 30.1536C0.566118 30.9404 0.993864 31.7884 1.7807 32.0476L14.603 36.2713C15.3898 36.5305 16.2378 36.1027 16.497 35.3159C16.7561 34.529 16.3284 33.6811 15.5416 33.4219L4.14399 29.6675L7.89838 18.2699C8.15757 17.4831 7.72982 16.6351 6.94298 16.3759C6.15614 16.1167 5.30817 16.5445 5.04899 17.3313L0.825304 30.1536ZM2.25 30.6229L2.92557 31.9622C3.79474 31.5237 4.6659 31.0903 5.53899 30.6618L4.87819 29.3152L4.2174 27.9686C3.33444 28.4019 2.45343 28.8402 1.57443 29.2836L2.25 30.6229ZM10.1746 26.7882L10.8056 28.149C12.5717 27.33 14.3454 26.5312 16.1261 25.7527L15.5252 24.3783L14.9243 23.0039C13.1234 23.7913 11.3297 24.5991 9.54355 25.4274L10.1746 26.7882ZM20.9277 22.0869L21.4981 23.4742C23.2984 22.7339 25.1055 22.0141 26.919 21.3146L26.3793 19.9151L25.8395 18.5156C24.0054 19.2229 22.1779 19.951 20.3572 20.6996L20.9277 22.0869ZM31.8774 17.864L32.3862 19.2751C34.2171 18.615 36.0541 17.9755 37.897 17.3567L37.4195 15.9347L36.942 14.5127C35.0782 15.1386 33.2203 15.7853 31.3687 16.4529L31.8774 17.864ZM43.0028 14.1281L43.4488 15.5602C45.3068 14.9816 47.1703 14.4237 49.039 13.8867L48.6247 12.4451L48.2104 11.0034C46.3205 11.5465 44.4359 12.1107 42.5567 12.6959L43.0028 14.1281ZM54.2825 10.8865L54.6649 12.337C56.5464 11.8409 58.4328 11.3659 60.3236 10.9118L59.9733 9.45326L59.623 7.99473C57.7108 8.45395 55.803 8.93442 53.9001 9.43608L54.2825 10.8865ZM65.6943 8.146L66.0123 9.61191C67.9136 9.19949 69.8191 8.80816 71.7283 8.43798L71.4428 6.9654L71.1572 5.49283C69.2264 5.86721 67.2993 6.26298 65.3763 6.68009L65.6943 8.146ZM77.2159 5.91205L77.4688 7.39057C79.3863 7.06255 81.3071 6.75575 83.231 6.47022L83.0108 4.98647L82.7906 3.50273C80.8448 3.7915 78.9022 4.10178 76.9629 4.43353L77.2159 5.91205ZM88.8248 4.18914L89.0122 5.67739C90.942 5.43443 92.8745 5.21277 94.8094 5.01249L94.6549 3.52046L94.5005 2.02843C92.5436 2.23099 90.5892 2.45516 88.6374 2.70089L88.8248 4.18914ZM100.498 2.98077L100.62 4.47585C102.558 4.3184 104.499 4.18236 106.441 4.06775L106.353 2.57036L106.264 1.07296C104.3 1.18887 102.338 1.32646 100.377 1.4857L100.498 2.98077ZM112.214 2.28944L112.27 3.78842C114.213 3.7168 116.157 3.66665 118.103 3.63799L118.081 2.13816L118.059 0.638319C116.091 0.667297 114.124 0.718025 112.159 0.790453L112.214 2.28944ZM123.949 2.11661L123.938 3.61657C125.883 3.63093 127.827 3.66678 129.773 3.72417L129.817 2.22482L129.861 0.72547C127.894 0.667428 125.927 0.631171 123.96 0.616651L123.949 2.11661ZM135.68 2.46272L135.603 3.96072C137.544 4.06101 139.486 4.18279 141.427 4.32613L141.537 2.83021L141.648 1.33428C139.685 1.18931 137.721 1.06614 135.758 0.964718L135.68 2.46272ZM147.384 3.32708L147.241 4.8202C149.176 5.00619 151.11 5.21366 153.043 5.44268L153.219 3.9531L153.396 2.46352C151.441 2.2319 149.485 2.02206 147.528 1.83397L147.384 3.32708ZM159.039 4.70793L158.829 6.19325C160.754 6.46452 162.677 6.75725 164.598 7.07149L164.84 5.59116L165.082 4.11084C163.139 3.79303 161.194 3.49697 159.248 3.22261L159.039 4.70793ZM170.621 6.60233L170.346 8.07695C171.302 8.25509 172.257 8.43859 173.212 8.62746L173.503 7.15596L173.794 5.68447C172.829 5.49346 171.862 5.30787 170.895 5.12771L170.621 6.60233ZM173.503 7.15596L173.212 8.62746C174.169 8.81663 175.124 9.011 176.077 9.21056L176.385 7.74237L176.692 6.27418C175.728 6.07236 174.762 5.87578 173.794 5.68447L173.503 7.15596ZM182.124 9.01006L181.785 10.4711C183.684 10.9126 185.577 11.3748 187.463 11.8575L187.835 10.4044L188.207 8.95119C186.299 8.46302 184.385 7.99557 182.464 7.54903L182.124 9.01006ZM193.513 11.9246L193.109 13.3692C194.986 13.8941 196.857 14.4396 198.72 15.0052L199.156 13.5699L199.591 12.1346C197.707 11.5625 195.815 11.0109 193.917 10.48L193.513 11.9246ZM204.761 15.3396L204.294 16.765C206.146 17.3723 207.99 17.9999 209.827 18.6474L210.326 17.2328L210.824 15.8181C208.967 15.1633 207.102 14.5286 205.228 13.9143L204.761 15.3396ZM215.847 19.2484L215.317 20.6517C217.141 21.3402 218.956 22.0487 220.763 22.7768L221.323 21.3856L221.884 19.9943C220.057 19.2579 218.221 18.5415 216.377 17.8451L215.847 19.2484ZM226.751 23.6431L226.159 25.0216C227.95 25.7899 229.733 26.5777 231.505 27.3849L232.127 26.0198L232.749 24.6546C230.956 23.8383 229.153 23.0415 227.342 22.2645L226.751 23.6431ZM237.449 28.5145L236.798 29.8656C238.553 30.712 240.299 31.5776 242.035 32.4623L242.716 31.1259L243.397 29.7895C241.641 28.8948 239.876 28.0193 238.101 27.1634L237.449 28.5145ZM247.923 33.8527L247.213 35.1738C248.929 36.0966 250.634 37.0383 252.33 37.9987L253.069 36.6936L253.808 35.3884C252.094 34.4172 250.369 33.4649 248.633 32.5316L247.923 33.8527ZM258.151 39.647L257.383 40.9356C259.057 41.9329 260.72 42.9487 262.371 43.9829L263.167 42.7116L263.963 41.4403C262.293 40.3944 260.612 39.3671 258.919 38.3585L258.151 39.647ZM268.115 45.8858L267.291 47.1393C268.919 48.2092 270.535 49.2972 272.14 50.4032L272.991 49.1681L273.842 47.933C272.219 46.8145 270.585 45.7143 268.939 44.6323L268.115 45.8858ZM277.794 52.5567L276.916 53.7728C278.495 54.913 280.062 56.071 281.617 57.2466L282.522 56.0501L283.426 54.8536C281.854 53.6648 280.269 52.4937 278.672 51.3406L277.794 52.5567ZM287.172 59.6465L286.241 60.8228C287.768 62.0312 289.283 63.2568 290.785 64.4996L291.741 63.344L292.697 62.1883C291.179 60.9315 289.647 59.6921 288.102 58.4701L287.172 59.6465ZM296.228 67.1407L295.247 68.2751C296.72 69.5491 298.179 70.84 299.625 72.1476L300.631 71.035L301.637 69.9224C300.175 68.6001 298.699 67.2947 297.21 66.0063L296.228 67.1407ZM304.948 75.0249L303.917 76.1151C305.333 77.4523 306.734 78.8059 308.122 80.1758L309.176 79.1083L310.229 78.0409C308.826 76.6556 307.409 75.2868 305.978 73.9346L304.948 75.0249ZM313.313 83.2834L312.236 84.3276C313.591 85.7252 314.932 87.1389 316.259 88.5684L317.358 87.5481L318.458 86.5277C317.117 85.0822 315.76 83.6526 314.39 82.2393L313.313 83.2834ZM321.309 91.9002L320.188 92.8962C320.835 93.6246 321.478 94.3569 322.118 95.0931L323.25 94.1094L324.382 93.1256C323.736 92.3812 323.085 91.6407 322.431 90.9041L321.309 91.9002Z" fill="#77A1D3"/>
</svg>
